<svg width="34" height="34" viewBox="0 0 34 34" fill="none" xmlns="http://www.w3.org/2000/svg">
<path d="M29.155 18.0485V22.2135C29.155 23.6863 28.57 25.0988 27.5285 26.1403C26.4871 27.1817 25.0745 27.7668 23.6017 27.7668H9.71837C8.24554 27.7668 6.83302 27.1817 5.79157 26.1403C4.75012 25.0988 4.16504 23.6863 4.16504 22.2135V18.8815C4.16504 18.6606 4.2528 18.4487 4.40902 18.2925C4.56524 18.1363 4.77711 18.0485 4.99804 18.0485H29.155ZM29.155 18.0485V9.71849C29.155 8.24566 28.57 6.83315 27.5285 5.79169C26.4871 4.75024 25.0745 4.16516 23.6017 4.16516H16.66M22.2134 27.7668L23.6017 30.5435M11.1067 27.7668L9.71837 30.5435" stroke="#F38164" stroke-width="2.0825" stroke-linecap="round" stroke-linejoin="round"/>
<path d="M21.3804 11.1068H11.9397C11.4802 11.1068 11.1123 10.7348 11.1623 10.2766C11.365 8.43429 12.3049 4.16516 16.6601 4.16516C21.0153 4.16516 21.9552 8.43429 22.1579 10.2766C22.2079 10.7348 21.8399 11.1068 21.3804 11.1068Z" stroke="#F38164" stroke-width="2.0825" stroke-linecap="round" stroke-linejoin="round"/>
</svg>
