<svg width="33" height="33" viewBox="0 0 33 33" fill="none" xmlns="http://www.w3.org/2000/svg">
<path d="M11.316 14.9051L11.3508 15.0802L11.316 14.9051C11.0866 14.9507 10.8759 15.0634 10.7105 15.2287C10.5451 15.3941 10.4325 15.6048 10.3868 15.8342C10.3412 16.0636 10.3646 16.3014 10.4541 16.5175C10.5436 16.7336 10.6952 16.9183 10.8897 17.0482C11.0841 17.1781 11.3128 17.2475 11.5467 17.2475C11.8603 17.2475 12.1611 17.1229 12.3829 16.9011C12.6046 16.6794 12.7292 16.3786 12.7292 16.0649C12.7292 15.8311 12.6599 15.6024 12.5299 15.4079C12.4 15.2135 12.2153 15.0619 11.9992 14.9724C11.7831 14.8829 11.5454 14.8595 11.316 14.9051ZM12.9123 20.5094L12.9124 20.5093L12.9057 20.5055C12.7535 20.4198 12.5741 20.3958 12.4048 20.4387L12.4485 20.6117L12.4048 20.4387C12.2354 20.4815 12.089 20.5878 11.9959 20.7356C11.9027 20.8834 11.87 21.0613 11.9044 21.2326C11.9389 21.4039 12.0379 21.5553 12.1809 21.6556L12.1808 21.6558L12.189 21.661C13.3521 22.3852 14.6948 22.7691 16.0649 22.7691C17.4339 22.7691 18.7754 22.3859 19.9377 21.6629C20.0166 21.6179 20.0856 21.5575 20.1407 21.4854C20.1967 21.4122 20.2372 21.3283 20.2598 21.2389C20.2824 21.1496 20.2866 21.0565 20.2722 20.9655C20.2577 20.8744 20.2249 20.7873 20.1758 20.7093C20.1267 20.6313 20.0622 20.5641 19.9863 20.5118C19.9104 20.4594 19.8246 20.4231 19.7342 20.4049C19.6439 20.3867 19.5507 20.3871 19.4605 20.406C19.372 20.4246 19.2881 20.4605 19.2137 20.5118C18.2683 21.0986 17.1777 21.4095 16.0649 21.4095C14.9507 21.4095 13.8586 21.0977 12.9123 20.5094ZM28.7942 16.0649V16.0647C28.7905 12.6899 27.4482 9.45438 25.0619 7.06802C22.6755 4.68165 19.44 3.33937 16.0651 3.33566H16.0649C13.5473 3.33566 11.0863 4.08222 8.99294 5.48093C6.89962 6.87964 5.26807 8.86768 4.30462 11.1937C3.34118 13.5196 3.08909 16.0791 3.58026 18.5483C4.07142 21.0175 5.28376 23.2857 7.06399 25.0659C8.84421 26.8461 11.1123 28.0585 13.5816 28.5496C16.0508 29.0408 18.6103 28.7887 20.9362 27.8253C23.2622 26.8618 25.2502 25.2303 26.649 23.137C28.0477 21.0436 28.7942 18.5826 28.7942 16.0649ZM20.5832 14.8824C20.3493 14.8824 20.1207 14.9517 19.9262 15.0817C19.7318 15.2116 19.5802 15.3963 19.4907 15.6124C19.4012 15.8285 19.3778 16.0663 19.4234 16.2956C19.469 16.525 19.5816 16.7358 19.747 16.9011C19.9124 17.0665 20.1231 17.1792 20.3525 17.2248C20.5819 17.2704 20.8197 17.247 21.0358 17.1575C21.2519 17.068 21.4366 16.9164 21.5665 16.7219C21.6964 16.5275 21.7658 16.2988 21.7658 16.0649C21.7658 15.7513 21.6412 15.4505 21.4194 15.2287C21.1977 15.007 20.8969 14.8824 20.5832 14.8824ZM24.1848 8.11379C26.2644 10.2383 27.4304 13.0921 27.4332 16.0651C27.4334 18.2714 26.7916 20.4301 25.5861 22.2779C24.3806 24.1258 22.6634 25.583 20.6439 26.4716C18.6245 27.3603 16.39 27.6422 14.2132 27.2828C12.0363 26.9234 10.011 25.9383 8.38438 24.4476C6.75774 22.957 5.60003 21.0252 5.05243 18.8879C4.50483 16.7506 4.59102 14.5001 5.30047 12.4109C6.00993 10.3217 7.31199 8.48416 9.04787 7.12228C10.689 5.83476 12.6507 5.02502 14.7173 4.77832C13.3973 6.99144 13.3763 8.92518 13.3763 9.0365C13.3763 9.74958 13.6596 10.4335 14.1638 10.9377C14.668 11.4419 15.3519 11.7252 16.0649 11.7252C16.778 11.7252 17.4619 11.4419 17.9661 10.9377C18.4703 10.4335 18.7536 9.74958 18.7536 9.0365C18.7536 8.85602 18.6819 8.68292 18.5543 8.5553C18.4267 8.42767 18.2536 8.35597 18.0731 8.35597C17.8926 8.35597 17.7195 8.42767 17.5919 8.55529C17.4642 8.68292 17.3925 8.85602 17.3925 9.0365C17.3925 9.3886 17.2527 9.72628 17.0037 9.97525C16.7547 10.2242 16.417 10.3641 16.0649 10.3641C15.7128 10.3641 15.3752 10.2242 15.1262 9.97526C14.8772 9.72628 14.7374 9.3886 14.7374 9.0365L14.7374 9.03626C14.7376 9.02302 14.7472 8.47992 14.9624 7.66542C15.1757 6.85778 15.5904 5.78596 16.396 4.69908C19.3347 4.78813 22.1264 6.01112 24.1848 8.11379Z" fill="#F38164" stroke="#F38164" stroke-width="0.357"/>
</svg>
