<svg width="29" height="26" viewBox="0 0 29 26" fill="none" xmlns="http://www.w3.org/2000/svg">
<path d="M27.8735 11.0169H28.8346V10.7497L28.6981 10.5209L27.8735 11.0169ZM0.961154 11.0169L0.136484 10.5209L0 10.7535V11.0188L0.961154 11.0169ZM6.72808 20.6342V19.673H5.76692V20.6342H6.72808ZM22.1065 20.6342H23.0677V19.673H22.1065V20.6342ZM26.9123 11.0169V22.5565H28.8346V11.0169H26.9123ZM1.78582 11.5109L5.87265 4.70594L4.22331 3.71403L0.136484 10.5209L1.78582 11.5109ZM9.99216 2.37226H18.8425V0.449951H9.99216V2.37226ZM22.962 4.70402L27.0488 11.5109L28.6981 10.5209L24.6113 3.71403L22.962 4.70402ZM4.80577 23.5176H2.88346V25.44H4.80577V23.5176ZM5.76692 20.6342V22.5565H7.68923V20.6342H5.76692ZM25.9512 23.5176H24.0288V25.44H25.9512V23.5176ZM23.0677 22.5565V20.6342H21.1454V22.5565H23.0677ZM22.1065 19.673H6.72808V21.5953H22.1065V19.673ZM1.92231 22.5565V11.0169L0 11.0188V22.5565H1.92231ZM24.0288 23.5176C23.7739 23.5176 23.5295 23.4164 23.3492 23.2361C23.169 23.0559 23.0677 22.8114 23.0677 22.5565H21.1454C21.1454 23.3212 21.4492 24.0547 21.9899 24.5954C22.5307 25.1362 23.2641 25.44 24.0288 25.44V23.5176ZM4.80577 25.44C5.57051 25.44 6.30393 25.1362 6.84468 24.5954C7.38544 24.0547 7.68923 23.3212 7.68923 22.5565H5.76692C5.76692 22.8114 5.66566 23.0559 5.48541 23.2361C5.30516 23.4164 5.06068 23.5176 4.80577 23.5176V25.44ZM2.88346 23.5176C2.62855 23.5176 2.38407 23.4164 2.20382 23.2361C2.02357 23.0559 1.92231 22.8114 1.92231 22.5565H0C0 23.3212 0.303792 24.0547 0.844546 24.5954C1.3853 25.1362 2.11872 25.44 2.88346 25.44V23.5176ZM18.8425 2.37226C19.672 2.37235 20.4873 2.58715 21.2092 2.99576C21.9311 3.40437 22.5349 3.99287 22.962 4.70402L24.6113 3.71403C24.0133 2.71827 23.1677 1.8943 22.1567 1.3223C21.1458 0.750309 20.004 0.449774 18.8425 0.449951V2.37226ZM5.87265 4.70594C6.29968 3.9948 6.90351 3.40437 7.6254 2.99576C8.34729 2.58715 9.16265 2.37235 9.99216 2.37226V0.449951C8.83095 0.450106 7.68955 0.750798 6.67898 1.32278C5.66841 1.89476 4.82117 2.71855 4.22331 3.71403L5.87265 4.70594ZM26.9123 22.5565C26.9123 22.8114 26.811 23.0559 26.6308 23.2361C26.4505 23.4164 26.2061 23.5176 25.9512 23.5176V25.44C26.7159 25.44 27.4493 25.1362 27.9901 24.5954C28.5308 24.0547 28.8346 23.3212 28.8346 22.5565H26.9123ZM3.84462 17.7507H9.61154V15.8284H3.84462V17.7507ZM24.99 15.8284H19.2231V17.7507H24.99V15.8284ZM5.76692 11.9838H23.0677V10.0615H5.76692V11.9838Z" fill="#F38164"/>
</svg>
