<svg width="30" height="31" viewBox="0 0 30 31" fill="none" xmlns="http://www.w3.org/2000/svg">
<g clip-path="url(#clip0_2110_2578)">
<path d="M3.1875 20.6374C4.3605 20.6374 5.3125 19.2094 5.3125 17.4499C5.3125 15.6904 4.3605 14.2625 3.1875 14.2625C2.0145 14.2625 1.0625 15.6904 1.0625 17.4499C1.0625 19.2094 2.0145 20.6374 3.1875 20.6374ZM9.5625 11.075C10.7355 11.075 11.6875 9.64695 11.6875 7.88745C11.6875 6.12795 10.7355 4.69995 9.5625 4.69995C8.3895 4.69995 7.4375 6.12795 7.4375 7.88745C7.4375 9.64695 8.3895 11.075 9.5625 11.075ZM20.1875 11.075C21.3605 11.075 22.3125 9.64695 22.3125 7.88745C22.3125 6.12795 21.3605 4.69995 20.1875 4.69995C19.0145 4.69995 18.0625 6.12795 18.0625 7.88745C18.0625 9.64695 19.0145 11.075 20.1875 11.075ZM26.5625 20.6374C27.7355 20.6374 28.6875 19.2094 28.6875 17.4499C28.6875 15.6904 27.7355 14.2625 26.5625 14.2625C25.3895 14.2625 24.4375 15.6904 24.4375 17.4499C24.4375 19.2094 25.3895 20.6374 26.5625 20.6374ZM21.25 21.6999C21.25 24.6324 17.8075 25.9499 14.875 25.9499C11.9425 25.9499 8.5 24.6324 8.5 21.6999C8.5 18.7674 10.625 14.2625 14.875 14.2625C19.125 14.2625 21.25 18.7674 21.25 21.6999Z" stroke="#F38164" stroke-width="2.125" stroke-linecap="round" stroke-linejoin="round"/>
</g>
<defs>
<clipPath id="clip0_2110_2578">
<rect width="29.75" height="29.75" fill="white" transform="translate(0 0.449951)"/>
</clipPath>
</defs>
</svg>
