<svg width="37" height="38" viewBox="0 0 37 38" fill="none" xmlns="http://www.w3.org/2000/svg">
<path d="M12.4729 12.7467V12.8657H12.5919H14.129H14.248V12.7467V8.72722V8.60822H14.129H12.5919H12.4729V8.72722V12.7467ZM12.4729 25.2201V25.339L12.5918 25.3391L14.1289 25.3407L14.248 25.3408V25.2217V18.5415V18.4225H14.129H12.5919H12.4729V18.5415V25.2201ZM8.3269 32.0874L8.32699 32.0875C8.83406 32.5935 9.44995 32.8478 10.1679 32.8478H26.7223C27.4413 32.8478 28.0572 32.5935 28.5634 32.0874L28.5634 32.0873C29.0694 31.5803 29.3237 30.9644 29.3237 30.2464V7.54367C29.3237 6.8247 29.0695 6.20875 28.5634 5.70264L28.5633 5.70255C28.0562 5.19655 27.4403 4.94228 26.7223 4.94228H10.1679C9.44897 4.94228 8.83302 5.19652 8.3269 5.70264L8.32682 5.70273C7.82082 6.2098 7.56655 6.82568 7.56655 7.54367V30.2464C7.56655 30.9654 7.82079 31.5813 8.3269 32.0874ZM27.5486 7.54367V14.7566H9.34163V7.54367C9.34163 7.29613 9.42006 7.10106 9.57269 6.94842C9.72532 6.79579 9.9204 6.71736 10.1679 6.71736H26.7223C26.9699 6.71736 27.1649 6.79579 27.3176 6.94842C27.4702 7.10106 27.5486 7.29613 27.5486 7.54367ZM26.7223 31.0727H10.1679C9.9204 31.0727 9.72532 30.9943 9.57269 30.8416C9.42006 30.689 9.34163 30.4939 9.34163 30.2464V16.5316H27.5486V30.2464C27.5486 30.4939 27.4702 30.689 27.3176 30.8416C27.1649 30.9943 26.9699 31.0727 26.7223 31.0727Z" fill="#F38164" stroke="#F38164" stroke-width="0.238"/>
</svg>
