<svg width="37" height="37" viewBox="0 0 37 37" fill="none" xmlns="http://www.w3.org/2000/svg">
<path d="M8.48832 24.8534L8.48837 24.8534C8.91538 25.1378 9.29686 25.3913 9.76115 25.5767C10.2222 25.7607 10.7715 25.8797 11.5279 25.8797C12.2844 25.8797 12.8337 25.7607 13.2947 25.5767C13.759 25.3913 14.1405 25.1378 14.5675 24.8534C14.5675 24.8534 14.5675 24.8534 14.5675 24.8534L14.5681 24.853C15.4542 24.2623 16.4865 23.5741 18.4434 23.5741C20.4007 23.5741 21.4344 24.2626 22.3207 24.8534M8.48832 24.8534L21.4844 26.1102M8.48832 24.8534L8.48537 24.8514C7.59845 24.2611 6.56628 23.5741 4.61107 23.5741C4.41086 23.5741 4.21885 23.6536 4.07728 23.7952C3.9357 23.9368 3.85617 24.1288 3.85617 24.329C3.85617 24.5292 3.9357 24.7212 4.07728 24.8628C4.21885 25.0044 4.41086 25.0839 4.61107 25.0839C5.36825 25.0839 5.91759 25.2029 6.37839 25.3869C6.8425 25.5723 7.22359 25.8258 7.65065 26.1102L7.6507 26.1103L7.65366 26.1122C8.54058 26.7025 9.57274 27.3895 11.5279 27.3895C13.4849 27.3895 14.5171 26.7014 15.4032 26.1106L15.4038 26.1102C15.4038 26.1102 15.4038 26.1102 15.4039 26.1102C15.8309 25.8257 16.212 25.5723 16.6761 25.3869C17.1369 25.2029 17.6862 25.0839 18.4434 25.0839C19.2006 25.0839 19.7503 25.2029 20.2115 25.387C20.6759 25.5723 21.0574 25.8258 21.4843 26.1102L21.4844 26.1102M8.48832 24.8534L21.4844 26.1102M22.3207 24.8534L22.2217 25.002L22.3207 24.8534C22.3207 24.8534 22.3207 24.8534 22.3207 24.8534ZM22.3207 24.8534C22.7477 25.1378 23.1292 25.3913 23.5936 25.5767C24.0548 25.7607 24.6045 25.8797 25.3617 25.8797C26.1189 25.8797 26.6682 25.7607 27.129 25.5767C27.5931 25.3914 27.9742 25.1379 28.4013 24.8534L28.4013 24.8534L28.4062 24.8501C29.2927 24.2601 30.3234 23.5741 32.2786 23.5741C32.4788 23.5741 32.6708 23.6536 32.8124 23.7952C32.9539 23.9368 33.0335 24.1288 33.0335 24.329C33.0335 24.5292 32.9539 24.7212 32.8124 24.8628C32.6708 25.0044 32.4788 25.0839 32.2786 25.0839C31.5214 25.0839 30.9721 25.2029 30.5113 25.3869C30.0472 25.5723 29.6661 25.8258 29.239 26.1102L29.2389 26.1103L29.234 26.1135C28.3476 26.7035 27.3169 27.3895 25.3617 27.3895C23.4033 27.3895 22.3711 26.7014 21.485 26.1106L21.4844 26.1102M29.239 31.8743L29.2389 31.8743L29.234 31.8776C28.3476 32.4676 27.3169 33.1536 25.3617 33.1536C23.4033 33.1536 22.3711 32.4654 21.485 31.8747L21.4844 31.8743H29.239ZM29.239 31.8743C29.6661 31.5898 30.0472 31.3363 30.5113 31.151C30.9721 30.967 31.5214 30.848 32.2786 30.848C32.4788 30.848 32.6708 30.7684 32.8124 30.6269C32.9539 30.4853 33.0335 30.2933 33.0335 30.0931C33.0335 29.8929 32.9539 29.7008 32.8124 29.5593C32.6708 29.4177 32.4788 29.3382 32.2786 29.3382C30.3234 29.3382 29.2927 30.0241 28.4063 30.6141L28.4013 30.6174L28.4013 30.6175M29.239 31.8743L28.4013 30.6175M7.6507 31.8743L7.65065 31.8743C7.22359 31.5898 6.8425 31.3363 6.37839 31.151C5.91759 30.967 5.36825 30.848 4.61107 30.848C4.41086 30.848 4.21885 30.7684 4.07728 30.6269C3.9357 30.4853 3.85617 30.2933 3.85617 30.0931C3.85617 29.8929 3.9357 29.7008 4.07728 29.5593C4.21885 29.4177 4.41086 29.3382 4.61107 29.3382C6.56628 29.3382 7.59845 30.0251 8.48536 30.6155L8.48832 30.6174L8.48837 30.6175C8.91538 30.9019 9.29686 31.1554 9.76115 31.3407C10.2222 31.5248 10.7715 31.6438 11.5279 31.6438C12.2844 31.6438 12.8337 31.5248 13.2947 31.3407C13.759 31.1554 14.1405 30.9019 14.5675 30.6175L7.6507 31.8743ZM7.6507 31.8743L7.65366 31.8763C8.54058 32.4666 9.57274 33.1536 11.5279 33.1536C13.4849 33.1536 14.5171 32.4654 15.4032 31.8747L15.4038 31.8743C15.4038 31.8743 15.4038 31.8743 15.4039 31.8743C15.8309 31.5898 16.212 31.3363 16.6761 31.151C17.1369 30.967 17.6862 30.848 18.4434 30.848C19.2006 30.848 19.7503 30.967 20.2115 31.151M7.6507 31.8743L20.2115 31.151M22.3207 30.6175C21.4344 30.0266 20.4007 29.3382 18.4434 29.3382C16.4865 29.3382 15.4542 30.0263 14.5681 30.6171L14.5675 30.6175L22.3207 30.6175ZM22.3207 30.6175C22.7477 30.9019 23.1292 31.1554 23.5936 31.3407M22.3207 30.6175L23.5936 31.3407M28.4013 30.6175C27.9742 30.9019 27.5931 31.1554 27.129 31.3407C26.6682 31.5248 26.1189 31.6438 25.3617 31.6438C24.6045 31.6438 24.0548 31.5248 23.5936 31.3407M28.4013 30.6175L23.5936 31.3407M20.2115 31.151C20.6759 31.3364 21.0574 31.5898 21.4843 31.8743L20.2115 31.151ZM12.6808 21.2494C12.881 21.2494 13.073 21.1698 13.2146 21.0283C13.3561 20.8867 13.4357 20.6947 13.4357 20.4945V18.167H23.454V20.7683C23.454 20.9685 23.5335 21.1605 23.6751 21.3021C23.8167 21.4436 24.0087 21.5232 24.2089 21.5232C24.4091 21.5232 24.6011 21.4436 24.7427 21.3021C24.8843 21.1605 24.9638 20.9685 24.9638 20.7683V4.73119C24.9638 4.53098 24.8843 4.33896 24.7427 4.19739C24.6011 4.05582 24.4091 3.97629 24.2089 3.97629C24.0087 3.97629 23.8167 4.05582 23.6751 4.19739C23.5335 4.33896 23.454 4.53098 23.454 4.73119V7.43472H13.4357V4.73119C13.4357 4.53098 13.3561 4.33896 13.2146 4.19739C13.073 4.05582 12.881 3.97629 12.6808 3.97629C12.4805 3.97629 12.2885 4.05582 12.147 4.19739C12.0054 4.33896 11.9259 4.53098 11.9259 4.73119V20.4945C11.9259 20.6947 12.0054 20.8867 12.147 21.0283C12.2885 21.1698 12.4805 21.2494 12.6808 21.2494ZM13.4357 16.6572V13.5558H23.454V16.6572H13.4357ZM23.454 8.94454V12.046H13.4357V8.94454H23.454Z" fill="#F38164" stroke="#F38164" stroke-width="0.357"/>
</svg>
