<svg width="31" height="31" viewBox="0 0 31 31" fill="none" xmlns="http://www.w3.org/2000/svg">
<path d="M15.47 26.3287C14.9148 26.3287 14.4455 26.137 14.0622 25.7537C13.6789 25.3704 13.4873 24.9012 13.4873 24.346C13.4873 23.7899 13.6789 23.3202 14.0622 22.9369C14.4455 22.5536 14.9148 22.3619 15.47 22.3619C16.0252 22.3619 16.4945 22.5536 16.8778 22.9369C17.2611 23.3202 17.4527 23.7899 17.4527 24.346C17.4527 24.9012 17.2611 25.3704 16.8778 25.7537C16.4945 26.137 16.0252 26.3287 15.47 26.3287ZM8.1862 19.7888L6.86739 18.4545C7.98638 17.3355 9.27727 16.4593 10.74 15.8259C12.2028 15.1916 13.7808 14.8745 15.4739 14.8745C17.167 14.8745 18.744 15.1925 20.2051 15.8284C21.6644 16.4653 22.9536 17.3458 24.0726 18.4699L22.7538 19.7888C21.8084 18.8434 20.7126 18.1021 19.4664 17.5649C18.2202 17.0278 16.8881 16.7592 15.47 16.7592C14.0519 16.7592 12.7198 17.0278 11.4736 17.5649C10.2274 18.1021 9.13159 18.8434 8.1862 19.7888ZM2.70725 14.3098L1.38843 12.991C3.18295 11.1862 5.27784 9.75947 7.67312 8.71095C10.0675 7.66415 12.6665 7.14075 15.47 7.14075C18.2735 7.14075 20.8725 7.66501 23.2669 8.71353C25.6621 9.76119 27.757 11.1874 29.5516 12.9923L28.2327 14.3098C26.5783 12.6554 24.6609 11.361 22.4805 10.4268C20.3001 9.49262 17.9632 9.02508 15.47 9.02422C12.9776 9.02422 10.6412 9.49176 8.4608 10.4268C6.28039 11.3619 4.36254 12.6562 2.70725 14.3098Z" fill="#F38164"/>
</svg>
